<mxfile host="app.diagrams.net" modified="2022-08-07T09:35:49.082Z" agent="5.0 (Macintosh)" etag="SvnQSBJnACKBgEpE1n02" version="20.2.3" type="github">
  <diagram id="TAW6SIUi3CIoQOrU738B" name="Page-1">
    <mxGraphModel dx="995" dy="683" grid="1" gridSize="10" guides="1" tooltips="1" connect="1" arrows="1" fold="1" page="1" pageScale="1" pageWidth="850" pageHeight="1100" math="0" shadow="0">
      <root>
        <mxCell id="0" />
        <mxCell id="1" parent="0" />
        <mxCell id="0UtAotBktIrcCQisMfor-9" style="edgeStyle=orthogonalEdgeStyle;rounded=0;orthogonalLoop=1;jettySize=auto;html=1;" edge="1" parent="1" source="0UtAotBktIrcCQisMfor-1">
          <mxGeometry relative="1" as="geometry">
            <mxPoint x="420" y="430" as="targetPoint" />
          </mxGeometry>
        </mxCell>
        <mxCell id="0UtAotBktIrcCQisMfor-1" value="SET CART ITEM" style="whiteSpace=wrap;html=1;aspect=fixed;" vertex="1" parent="1">
          <mxGeometry x="380" y="260" width="80" height="80" as="geometry" />
        </mxCell>
        <mxCell id="0UtAotBktIrcCQisMfor-10" style="edgeStyle=orthogonalEdgeStyle;rounded=0;orthogonalLoop=1;jettySize=auto;html=1;" edge="1" parent="1" source="0UtAotBktIrcCQisMfor-6">
          <mxGeometry relative="1" as="geometry">
            <mxPoint x="420" y="630" as="targetPoint" />
          </mxGeometry>
        </mxCell>
        <mxCell id="0UtAotBktIrcCQisMfor-6" value="&lt;blockquote&gt;Cart.find((index) =&amp;gt; index.id == product.id )&lt;/blockquote&gt;" style="ellipse;whiteSpace=wrap;html=1;aspect=fixed;" vertex="1" parent="1">
          <mxGeometry x="365" y="430" width="110" height="110" as="geometry" />
        </mxCell>
        <mxCell id="0UtAotBktIrcCQisMfor-12" value="Update Cart Item " style="swimlane;" vertex="1" parent="1">
          <mxGeometry x="470" y="540" width="200" height="200" as="geometry" />
        </mxCell>
        <mxCell id="0UtAotBktIrcCQisMfor-13" value="&lt;div&gt;Cart.map((item) =&amp;gt; {&lt;/div&gt;&lt;div&gt;&lt;span style=&quot;white-space: pre;&quot;&gt;if&lt;br&gt;&lt;/span&gt;&lt;/div&gt;&lt;div&gt;&lt;span style=&quot;white-space: pre;&quot;&gt;}	&lt;/span&gt;&lt;/div&gt;" style="whiteSpace=wrap;html=1;" vertex="1" parent="0UtAotBktIrcCQisMfor-12">
          <mxGeometry x="10" y="30" width="180" height="160" as="geometry" />
        </mxCell>
      </root>
    </mxGraphModel>
  </diagram>
</mxfile>
